<svg width="69" height="69" viewBox="0 0 69 69" fill="none" xmlns="http://www.w3.org/2000/svg">
<g clip-path="url(#clip0)">
<path d="M41.2735 45.5946L47.3334 42.3006L57.877 61.6978C58.1941 62.2812 57.782 62.9937 57.1182 63.0098L51.2777 63.1512C50.9919 63.1582 50.727 63.3021 50.5657 63.5382L47.2707 68.3626C46.8962 68.911 46.0741 68.8694 45.757 68.2858L35.2134 48.8886L41.2735 45.5946Z" fill="#A2AEE6"/>
<path d="M27.4763 45.5946L21.4164 42.3006L10.8728 61.6978C10.5556 62.2812 10.9677 62.9937 11.6316 63.0098L17.4721 63.1512C17.7579 63.1582 18.0228 63.3021 18.1841 63.5382L21.4791 68.3626C21.8536 68.911 22.6756 68.8694 22.9928 68.2858L33.5364 48.8886L27.4763 45.5946Z" fill="#A2AEE6"/>
<path d="M57.1184 63.01L55.0607 63.0597L44.5875 43.794L47.3339 42.3007L57.8776 61.6975C58.1948 62.2813 57.7821 62.9935 57.1184 63.01Z" fill="#8795DE"/>
<path d="M33.5359 48.8878L22.9923 68.2859C22.6762 68.8696 21.8538 68.9111 21.4798 68.3618L20.2116 66.5042C20.2778 66.442 20.3344 66.3676 20.3813 66.2819L30.6793 47.3351L33.5359 48.8878Z" fill="#8795DE"/>
<path d="M34.3749 54.0595C49.3031 54.0595 61.4047 41.9579 61.4047 27.0298C61.4047 12.1016 49.3031 0 34.3749 0C19.4468 0 7.34518 12.1016 7.34518 27.0298C7.34518 41.9579 19.4468 54.0595 34.3749 54.0595Z" fill="#FEA613"/>
<path d="M61.4047 27.0291C61.4047 41.9572 49.303 54.0589 34.3748 54.0589C30.5714 54.0589 26.9514 53.2737 23.6684 51.8551C26.2077 52.6458 28.9071 53.0709 31.7058 53.0709C46.634 53.0709 58.7357 40.9692 58.7357 26.041C58.7357 14.9178 52.0162 5.36368 42.4151 1.21652C53.417 4.63898 61.4047 14.9011 61.4047 27.0291Z" fill="#FB8801"/>
<path d="M34.3749 48.301C46.1227 48.301 55.6462 38.7776 55.6462 27.0298C55.6462 15.282 46.1227 5.75848 34.3749 5.75848C22.6271 5.75848 13.1036 15.282 13.1036 27.0298C13.1036 38.7776 22.6271 48.301 34.3749 48.301Z" fill="#FEE45A"/>
<path d="M55.6456 27.0291C55.6456 38.7775 46.1232 48.3013 34.3748 48.3013C30.4208 48.3013 26.7181 47.2221 23.5468 45.3425C26.0584 46.3872 28.8145 46.964 31.7057 46.964C43.4542 46.964 52.9779 37.4403 52.9779 25.6931C52.9779 17.8985 48.7853 11.0824 42.5322 7.37839C50.2317 10.5788 55.6456 18.1719 55.6456 27.0291Z" fill="#FED402"/>
<path d="M31.9988 23.4712C32.5691 23.4712 33.0315 23.0089 33.0315 22.4385C33.0315 21.8681 32.5692 21.4058 31.9988 21.4058H28.1156C27.5454 21.4058 27.0829 21.8681 27.0829 22.4385V31.6545C27.0829 32.2249 27.5452 32.6872 28.1156 32.6872H31.9988C32.5691 32.6872 33.0315 32.2249 33.0315 31.6545C33.0315 31.0841 32.5692 30.6218 31.9988 30.6218H29.1482V28.0792H31.7124C32.2827 28.0792 32.7451 27.6169 32.7451 27.0465C32.7451 26.4761 32.2828 26.0138 31.7124 26.0138H29.1482V23.4712H31.9988Z" fill="#FEA613"/>
<path d="M23.5873 26.3601C23.9503 25.8442 24.1643 25.2165 24.1643 24.5392C24.1643 22.7897 22.741 21.3663 20.9915 21.3663H18.2898C17.7196 21.3663 17.2571 21.8286 17.2571 22.3991V31.6999C17.2571 31.9746 17.3665 32.238 17.5612 32.4319C17.7549 32.6245 18.0169 32.7326 18.2898 32.7326H18.2944C18.2944 32.7326 20.7787 32.7216 21.4633 32.7216C23.4132 32.7216 24.9995 31.1353 24.9995 29.1854C24.9995 28.032 24.4443 27.006 23.5873 26.3601ZM19.3224 23.4317H20.9914C21.6021 23.4317 22.0989 23.9285 22.0989 24.5392C22.0989 25.1499 21.6021 25.6464 20.9914 25.6464C20.7924 25.6464 19.3224 25.649 19.3224 25.649V23.4317ZM21.4632 30.6562C21.0713 30.6562 20.0914 30.6598 19.3224 30.6629V27.7171C19.5461 27.7162 21.4632 27.7144 21.4632 27.7144C22.2743 27.7144 22.9341 28.3743 22.9341 29.1853C22.9341 29.9963 22.2743 30.6562 21.4632 30.6562Z" fill="#FEA613"/>
<path d="M40.2675 26.1508C39.2622 25.78 38.3331 25.3873 37.8685 25.186C37.7258 25.1241 37.6159 25.0427 37.5514 24.9506C37.4083 24.7465 37.3757 24.4718 37.4643 24.2157C37.5757 23.8942 37.8564 23.6509 38.2548 23.531C39.6351 23.1154 40.9 24.119 40.9342 24.1465C41.3706 24.5094 42.0188 24.4518 42.3845 24.0167C42.7515 23.58 42.6951 22.9286 42.2586 22.5617C42.1729 22.4898 40.1338 20.8083 37.6592 21.5532C36.6242 21.865 35.8419 22.5892 35.5128 23.5399C35.2078 24.4203 35.3377 25.3909 35.8604 26.1364C36.1444 26.5411 36.555 26.8679 37.0478 27.0813C37.5317 27.2909 38.5008 27.7006 39.5529 28.0887C39.9914 28.2505 40.996 28.7117 40.8554 29.4998C40.7532 30.0722 40.0697 30.6644 39.1028 30.6644C38.1423 30.6644 37.2166 30.2758 36.6269 29.6249C36.2438 29.2022 35.5906 29.1704 35.1682 29.5531C34.7456 29.936 34.7134 30.5892 35.0964 31.0117C36.0711 32.0874 37.5689 32.7297 39.1028 32.7297C40.9999 32.7297 42.592 31.5239 42.8886 29.8627C43.1108 28.6174 42.5391 26.9887 40.2675 26.1508Z" fill="#FEA613"/>
<path d="M44.2909 22.3961C44.2909 22.9666 44.7532 23.4289 45.3236 23.4289H46.8489V31.697C46.8489 32.2674 47.3112 32.7297 47.8816 32.7297C48.452 32.7297 48.9143 32.2674 48.9143 31.697V23.4287H50.4601C51.0305 23.4287 51.4929 22.9664 51.4929 22.396C51.4929 21.8256 51.0305 21.3633 50.4601 21.3633H45.3236C44.7532 21.3634 44.2909 21.8257 44.2909 22.3961Z" fill="#FEA613"/>
</g>
<defs>
<clipPath id="clip0">
<rect width="68.75" height="68.75" fill="white"/>
</clipPath>
</defs>
</svg>
